<?xml version="1.0" encoding="UTF-8" standalone="no"?>
<!-- Generator: Adobe Illustrator 11 Build 196, SVG Export Plug-In . SVG Version: 6.0.0 Build 78)  -->
<svg
   xmlns:dc="http://purl.org/dc/elements/1.1/"
   xmlns:cc="http://web.resource.org/cc/"
   xmlns:rdf="http://www.w3.org/1999/02/22-rdf-syntax-ns#"
   xmlns:svg="http://www.w3.org/2000/svg"
   xmlns="http://www.w3.org/2000/svg"
   xmlns:sodipodi="http://inkscape.sourceforge.net/DTD/sodipodi-0.dtd"
   xmlns:inkscape="http://www.inkscape.org/namespaces/inkscape"
   width="143.495"
   height="254.23"
   viewBox="0 0 143.495 254.23"
   style="overflow:visible;enable-background:new 0 0 143.495 254.23"
   xml:space="preserve"
   id="svg2"
   sodipodi:version="0.32"
   inkscape:version="0.42.2"
   sodipodi:docname="twotapes.svg"
   sodipodi:docbase="/home/bcrowell/Documents/writing/lm/trunk/4em/ch01/figs"><metadata
   id="metadata196"><rdf:RDF><cc:Work
       rdf:about=""><dc:format>image/svg+xml</dc:format><dc:type
         rdf:resource="http://purl.org/dc/dcmitype/StillImage" /></cc:Work></rdf:RDF></metadata><defs
   id="defs194">
		
		
		
		
		
		
		
		
		
		
		
		
		
		
		
		
		
		
		
	</defs><sodipodi:namedview
   inkscape:cy="105.58891"
   inkscape:cx="65.633210"
   inkscape:zoom="1.2755490"
   inkscape:window-height="689"
   inkscape:window-width="824"
   inkscape:pageshadow="2"
   inkscape:pageopacity="0.0"
   borderopacity="1.0"
   bordercolor="#666666"
   pagecolor="#ffffff"
   id="base"
   inkscape:window-x="94"
   inkscape:window-y="262"
   inkscape:current-layer="svg2" />
	<style
   type="text/css"
   id="style4">
	
	</style>
	<rect
   style="fill:#dedede;fill-opacity:1.0000000;fill-rule:evenodd;stroke:none;stroke-width:1.0000000pt;stroke-linecap:butt;stroke-linejoin:miter;stroke-opacity:1.0000000;overflow:visible"
   id="rect2320"
   width="184.25197"
   height="114.46052"
   x="-3.7283678"
   y="202.09560" /><rect
   style="fill:#dedede;fill-opacity:1.0000000;fill-rule:evenodd;stroke:none;stroke-width:1.0000000pt;stroke-linecap:butt;stroke-linejoin:miter;stroke-opacity:1.0000000;overflow:visible"
   id="rect2318"
   width="184.25197"
   height="118.38039"
   x="-3.7283678"
   y="79.795311" /><rect
   style="fill:#dedede;fill-opacity:1.0000000;fill-rule:evenodd;stroke:none;stroke-width:1.0000000pt;stroke-linecap:butt;stroke-linejoin:miter;stroke-opacity:1.0000000"
   id="rect1494"
   width="184.25197"
   height="76.045685"
   x="-3.3275919"
   y="-0.56225479" /><g
   id="g7"
   transform="matrix(1.227493,0.000000,0.000000,1.227493,-0.149559,-0.563046)">
			<path
   id="path9"
   d="M 134.40500,85.036000 C 123.23700,81.533000 113.10700,78.319000 110.51800,77.095000 C 107.92900,75.871000 104.19100,73.517000 102.78900,73.704000 C 101.38700,73.891000 96.846000,76.209000 95.678000,77.078000 C 94.510000,77.948000 85.548000,82.425000 84.623000,82.976000 C 83.698000,83.527000 80.007000,84.733000 78.129000,88.836000 C 76.251000,92.939000 75.139000,96.369000 75.083000,98.088000 C 75.027000,99.807000 76.504000,104.46100 76.850000,105.98400 C 77.196000,107.50700 77.290000,110.34800 78.000000,111.39500 C 78.710000,112.44200 80.149000,112.53500 80.149000,112.53500"
   style="fill:none;stroke:#000000;stroke-width:0.50000000" />
			<path
   id="path11"
   d="M 135.20200,107.04400 C 130.66900,108.36200 126.84800,110.72700 124.00700,110.82100 C 121.16600,110.91500 116.00700,110.74700 113.99800,111.72900 C 111.98900,112.71000 104.05500,114.19700 101.76500,115.21600 C 99.475000,116.23500 95.588000,117.03900 94.270000,116.78700 C 92.952000,116.53500 91.233000,116.47900 89.868000,116.94600 C 88.504000,117.41400 84.495000,118.37700 83.579000,117.92800 C 82.663000,117.48000 80.317000,115.93800 80.205000,115.09700 C 80.093000,114.25600 80.354000,111.93800 82.008000,110.43300 C 83.662000,108.92800 85.802000,106.78800 86.886000,106.35800 C 87.970000,105.92800 92.540000,104.89000 94.063000,104.54500 C 95.586000,104.19900 99.764000,102.35700 100.25000,101.72200 C 100.73600,101.08700 104.57600,96.722000 104.57600,96.722000"
   style="fill:none;stroke:#000000;stroke-width:0.50000000" />
			<path
   id="path13"
   d="M 101.19300,99.169000 C 101.19300,99.169000 101.66900,86.693000 102.15400,86.058000"
   style="fill:none;stroke:#000000;stroke-width:0.50000000" />
			<path
   id="path15"
   d="M 100.63100,90.684000 C 98.052000,92.740000 94.080000,93.984000 93.249000,93.096000"
   style="fill:none;stroke:#000000;stroke-width:0.50000000" />
			<path
   id="path17"
   d="M 92.478000,92.129000 C 91.034000,92.536000 86.648000,93.882000 86.228000,93.938000 C 85.808000,93.994000 83.998000,98.611000 83.489000,99.606000 C 82.980000,100.60200 82.475000,101.09700 82.475000,101.09700 C 82.475000,101.09700 85.218000,105.08200 85.069000,106.10100"
   style="fill:none;stroke:#000000;stroke-width:0.50000000" />
			<path
   id="path19"
   d="M 93.922000,95.289000 C 91.642000,96.734000 88.047000,99.021000 88.047000,99.021000 L 85.668000,102.57200"
   style="fill:none;stroke:#000000;stroke-width:0.50000000" />
			<line
   id="line21"
   y2="90.984001"
   x2="92.681999"
   y1="88.186996"
   x1="92.974998"
   style="fill:none;stroke:#000000;stroke-width:0.50000000" />
			<line
   id="line23"
   y2="92.000000"
   x2="84.351997"
   y1="92.728996"
   x1="85.305000"
   style="fill:none;stroke:#000000;stroke-width:0.50000000" />
			<line
   id="line25"
   y2="100.72300"
   x2="81.710999"
   y1="100.47400"
   x1="80.726997"
   style="fill:none;stroke:#000000;stroke-width:0.50000000" />
			<polyline
   id="polyline27"
   points="81,114.55 85.5,112.452 87.921,116.694 "
   style="fill:none;stroke:#000000;stroke-width:0.50000000" />
			<path
   id="path29"
   d="M 91.424000,110.96000 C 91.424000,110.96000 91.013000,112.15600 91.429000,112.60000"
   style="fill:none;stroke:#000000;stroke-width:0.50000000" />
			<polyline
   id="polyline31"
   points="88.371,95.744 86.683,96.635 86.004,97.962 "
   style="fill:none;stroke:#000000;stroke-width:0.50000000" />
		</g><g
   id="g33"
   transform="matrix(1.227493,0.000000,0.000000,1.227493,-0.149559,-0.563046)">
			<polyline
   id="polyline35"
   points="32.98,50.404 43.665,7.924 44.428,7.525 44.729,8.084      46.016,7.583 46.568,8.242 47.646,7.687 48.381,8.718 49.334,7.565 51.111,8.405 51.718,7.971 52.357,8.725 53.547,7.945      54.658,8.579 55.703,8.16 56.1,8.997 57.333,8.265 58.828,8.913 59.446,8.433 59.813,8.948 60.409,8.559 "
   style="fill:none;stroke:#000000;stroke-width:0.50000000" />
			<line
   id="line37"
   y2="8.5349998"
   x2="60.598999"
   y1="51.015999"
   x1="49.914001"
   style="fill:none;stroke:#000000;stroke-width:0.50000000" />
			<polyline
   id="polyline39"
   points="32.871,50.4 33.325,51.01 34.143,50.172 34.814,51.019      36.059,50.241 36.456,51.078 37.71,50.483 38.368,51.604 39.526,50.732 40.361,51.584 41.652,50.626 42.597,51.482      43.294,50.685 44.05,51.854 45.537,50.994 46.198,51.658 47.092,50.959 48.003,51.951 48.721,51.292 49.045,51.76 49.786,51.011      "
   style="fill:none;stroke:#000000;stroke-width:0.50000000" />
		</g><g
   id="g41"
   transform="matrix(1.227493,0.000000,0.000000,1.227493,-0.149559,-0.563046)">
			<polyline
   id="polyline43"
   points="60.247,4.553 49.845,54.751 49.102,55.223 48.809,54.562      47.556,55.155 47.019,54.375 45.968,55.031 45.253,53.812 44.325,55.175 42.595,54.182 42.005,54.695 41.383,53.805      40.224,54.726 39.142,53.977 38.125,54.472 37.739,53.483 36.538,54.348 35.083,53.583 34.481,54.15 34.124,53.541      33.544,54.001 "
   style="fill:none;stroke:#000000;stroke-width:0.50000000" />
			<line
   id="line45"
   y2="54.028999"
   x2="33.359001"
   y1="3.8310001"
   x1="43.761002"
   style="fill:none;stroke:#000000;stroke-width:0.50000000" />
			<polyline
   id="polyline47"
   points="60.354,4.558 59.911,3.837 59.115,4.827 58.461,3.828      57.25,4.746 56.863,3.757 55.642,4.459 55.001,3.136 53.874,4.166 53.061,3.159 51.804,4.291 50.885,3.28 50.206,4.221      49.47,2.84 48.022,3.856 47.378,3.072 46.508,3.897 45.622,2.725 44.922,3.504 44.607,2.951 43.886,3.836 "
   style="fill:none;stroke:#000000;stroke-width:0.50000000" />
		</g><g
   id="g49"
   transform="matrix(1.227493,0.000000,0.000000,1.227493,-0.149559,-0.563046)">
			<polyline
   id="polyline51"
   points="94.392,10.482 86.887,53.401 86.181,53.822 85.857,53.27      84.658,53.808 84.086,53.161 83.089,53.747 82.319,52.731 81.48,53.914 79.725,53.119 79.172,53.572 78.512,52.833      77.422,53.646 76.317,53.041 75.344,53.489 74.91,52.661 73.776,53.428 72.303,52.818 71.743,53.317 71.357,52.81 70.812,53.216      "
   style="fill:none;stroke:#000000;stroke-width:0.50000000" />
			<line
   id="line53"
   y2="53.244999"
   x2="70.632004"
   y1="10.326000"
   x1="78.137001"
   style="fill:none;stroke:#000000;stroke-width:0.50000000" />
			<polyline
   id="polyline55"
   points="94.497,10.483 94.023,9.883 93.293,10.747 92.596,9.916      91.454,10.729 91.02,9.9 89.856,10.53 89.155,9.424 88.102,10.331 87.248,9.498 86.073,10.494 85.114,9.661 84.497,10.479      83.698,9.326 82.33,10.229 81.654,9.582 80.843,10.307 79.907,9.336 79.262,10.017 78.921,9.555 78.26,10.328 "
   style="fill:none;stroke:#000000;stroke-width:0.50000000" />
		</g><g
   id="g57"
   transform="matrix(1.227493,0.000000,0.000000,1.227493,-0.149559,-0.563046)">
			<polyline
   id="polyline59"
   points="69.035,55.838 79.437,7.513 80.18,7.06 80.474,7.695      81.726,7.125 82.263,7.875 83.313,7.244 84.029,8.417 84.957,7.105 86.687,8.062 87.277,7.567 87.899,8.424 89.058,7.538      90.14,8.259 91.157,7.782 91.543,8.734 92.744,7.901 94.199,8.638 94.801,8.092 95.158,8.678 95.738,8.235 "
   style="fill:none;stroke:#000000;stroke-width:0.50000000" />
			<line
   id="line61"
   y2="8.2080002"
   x2="95.922997"
   y1="56.534000"
   x1="85.521004"
   style="fill:none;stroke:#000000;stroke-width:0.50000000" />
			<polyline
   id="polyline63"
   points="68.928,55.834 69.371,56.528 70.167,55.574 70.82,56.537      72.033,55.653 72.419,56.604 73.641,55.929 74.28,57.202 75.408,56.211 76.221,57.181 77.478,56.09 78.397,57.064 79.076,56.158      79.812,57.488 81.259,56.51 81.904,57.264 82.773,56.47 83.66,57.598 84.359,56.848 84.675,57.381 85.396,56.528 "
   style="fill:none;stroke:#000000;stroke-width:0.50000000" />
		</g><g
   id="g65"
   transform="matrix(1.227493,0.000000,0.000000,1.227493,-0.149559,-0.563046)">
			<path
   id="path67"
   d="M 9.1030000,86.858000 C 20.231000,83.231000 30.326000,79.905000 32.901000,78.653000 C 35.476000,77.401000 39.188000,75.005000 40.592000,75.176000 C 41.996000,75.347000 46.563000,77.615000 47.740000,78.471000 C 48.917000,79.327000 57.928000,83.705000 58.859000,84.246000 C 59.790000,84.787000 63.495000,85.952000 65.418000,90.034000 C 67.341000,94.116000 68.491000,97.533000 68.566000,99.252000 C 68.641000,100.97100 67.215000,105.64100 66.886000,107.16800 C 66.557000,108.69500 66.494000,111.53700 65.796000,112.59100 C 65.097000,113.64600 63.659000,113.75500 63.659000,113.75500"
   style="fill:none;stroke:#000000;stroke-width:0.50000000" />
			<path
   id="path69"
   d="M 8.5500000,108.87300 C 13.097000,110.14100 16.945000,112.46300 19.787000,112.52600 C 22.629000,112.58800 27.785000,112.36300 29.805000,113.32200 C 31.825000,114.28100 39.775000,115.68000 42.075000,116.67400 C 44.376000,117.66800 48.272000,118.42800 49.587000,118.16200 C 50.902000,117.89600 52.621000,117.82000 53.990000,118.27300 C 55.359000,118.72500 59.379000,119.64400 60.290000,119.18500 C 61.201000,118.72700 63.529000,117.15900 63.632000,116.31600 C 63.735000,115.47300 63.448000,113.15900 61.777000,111.67300 C 60.107000,110.18700 57.944000,108.07000 56.855000,107.65200 C 55.766000,107.23500 51.186000,106.24700 49.658000,105.91800 C 48.131000,105.58900 43.934000,103.79400 43.441000,103.16400 C 42.948000,102.53400 39.060000,98.212000 39.060000,98.212000"
   style="fill:none;stroke:#000000;stroke-width:0.50000000" />
			<path
   id="path71"
   d="M 42.469000,100.62300 C 42.469000,100.62300 41.856000,88.153000 41.363000,87.523000"
   style="fill:none;stroke:#000000;stroke-width:0.50000000" />
			<path
   id="path73"
   d="M 42.937000,92.132000 C 45.539000,94.159000 49.524000,95.359000 50.346000,94.462000"
   style="fill:none;stroke:#000000;stroke-width:0.50000000" />
			<path
   id="path75"
   d="M 51.072000,93.753000 C 52.520000,94.144000 56.921000,95.441000 57.342000,95.492000 C 57.763000,95.544000 59.623000,100.14000 60.144000,101.13000 C 60.664000,102.12000 61.174000,102.60900 61.174000,102.60900 C 61.174000,102.60900 58.475000,106.62500 58.635000,107.64100"
   style="fill:none;stroke:#000000;stroke-width:0.50000000" />
			<line
   id="line77"
   y2="92.344002"
   x2="50.889000"
   y1="89.550003"
   x1="50.564999"
   style="fill:none;stroke:#000000;stroke-width:0.50000000" />
			<line
   id="line79"
   y2="93.575996"
   x2="59.890999"
   y1="94.315002"
   x1="58.945000"
   style="fill:none;stroke:#000000;stroke-width:0.50000000" />
			<line
   id="line81"
   y2="101.96000"
   x2="61.966999"
   y1="101.70100"
   x1="62.948002"
   style="fill:none;stroke:#000000;stroke-width:0.50000000" />
			<polyline
   id="polyline83"
   points="62.864,116.479 58.341,114.43 55.968,118.699 "
   style="fill:none;stroke:#000000;stroke-width:0.50000000" />
			<path
   id="path85"
   d="M 52.368000,112.30400 C 52.368000,112.30400 52.792000,113.49500 52.381000,113.94400"
   style="fill:none;stroke:#000000;stroke-width:0.50000000" />
			<polyline
   id="polyline87"
   points="55.252,97.056 56.95,97.928 57.644,99.248 "
   style="fill:none;stroke:#000000;stroke-width:0.50000000" />
			<line
   id="line89"
   y2="93.115997"
   x2="39.078999"
   y1="96.582001"
   x1="40.146000"
   style="fill:none;stroke:#000000;stroke-width:0.50000000" />
		</g><path
   id="path91"
   d="M 77.974233,140.97058 C 77.974233,140.97058 84.330192,162.43329 79.161219,174.32402 C 73.992246,186.21352 67.838823,192.11039 67.838823,192.11039 L 67.185797,191.07071 L 66.227125,190.74542 L 66.103148,189.25770 L 64.840058,189.64559 L 64.961580,188.17751 L 63.962400,188.34076 L 64.083922,186.87268 L 61.841292,187.17955 L 62.452584,185.75321 L 61.025010,185.14191 L 61.126892,183.91810 L 59.883441,184.06172 C 59.883441,184.06172 73.351494,173.10389 74.407138,166.29376 C 75.461555,159.48363 72.454197,145.19438 72.454197,145.19438"
   style="fill:none;stroke:#000000;stroke-width:0.61374652" /><path
   id="path93"
   d="M 101.58997,143.74349 C 102.02082,147.89364 103.90871,175.58834 107.91033,180.84937 C 111.91196,186.11041 120.84811,191.35303 120.84811,191.35303 L 118.91972,191.79984 L 119.75318,192.70082 L 117.77447,192.65908 L 118.63371,193.80433 L 116.67954,194.00687 L 117.02570,194.95818 L 114.99665,194.42790 L 115.19919,196.38084 L 113.58258,195.06742 L 113.32235,197.31619 L 111.89846,195.48968 C 111.89846,195.48968 96.829753,183.47866 95.387449,176.71886 C 93.235653,166.63132 96.022063,137.65512 96.022063,137.65512"
   style="fill:none;stroke:#000000;stroke-width:0.61374652" /><g
   id="g95"
   transform="matrix(1.227493,0.000000,0.000000,1.227493,-0.149559,-0.563046)">
			<line
   id="line97"
   y2="147.39999"
   x2="109.36200"
   y1="147.39999"
   x1="92.561996"
   style="fill:none;stroke:#000000" />
			<path
   id="path99"
   d="M 111.77600,147.40000 C 110.64000,147.82100 109.23100,148.54100 108.35700,149.30200 L 109.04500,147.40000 L 108.35700,145.49800 C 109.23100,146.25900 110.64100,146.97900 111.77600,147.40000 z " />
		</g><g
   id="g101"
   transform="matrix(1.227493,0.000000,0.000000,1.227493,-0.149559,-0.563046)">
			<line
   id="line103"
   y2="147.39999"
   x2="31.806999"
   y1="147.39999"
   x1="48.606998"
   style="fill:none;stroke:#000000" />
			<path
   id="path105"
   d="M 29.393000,147.40000 C 30.529000,146.97900 31.938000,146.25900 32.812000,145.49800 L 32.124000,147.40000 L 32.812000,149.30200 C 31.938000,148.54100 30.529000,147.82100 29.393000,147.40000 z " />
		</g><g
   id="g107"
   transform="matrix(1.227493,0.000000,0.000000,1.227493,-0.149559,-0.563046)">
			<path
   id="path109"
   d="M 142.62800,183.88200 C 131.46000,180.37900 121.33000,177.16500 118.74100,175.94100 C 116.15200,174.71700 112.41400,172.36200 111.01200,172.54900 C 109.61000,172.73600 105.06900,175.05400 103.90100,175.92400 C 102.73300,176.79300 93.771000,181.27000 92.846000,181.82200 C 91.921000,182.37300 88.230000,183.57900 86.352000,187.68200 C 84.474000,191.78500 83.362000,195.21500 83.306000,196.93400 C 83.250000,198.65300 84.727000,203.30700 85.074000,204.83000 C 85.420000,206.35300 85.513000,209.19400 86.224000,210.24100 C 86.934000,211.28800 88.373000,211.38100 88.373000,211.38100"
   style="fill:none;stroke:#000000;stroke-width:0.50000000" />
			<path
   id="path111"
   d="M 143.42500,205.89000 C 138.89200,207.20800 135.07100,209.57300 132.23000,209.66600 C 129.38900,209.76000 124.23000,209.59200 122.22100,210.57400 C 120.21200,211.55600 112.27800,213.04200 109.98800,214.06100 C 107.69900,215.08000 103.81100,215.88400 102.49300,215.63200 C 101.17500,215.38000 99.456000,215.32400 98.092000,215.79100 C 96.727000,216.25900 92.718000,217.22200 91.802000,216.77300 C 90.886000,216.32400 88.540000,214.78200 88.428000,213.94100 C 88.316000,213.10000 88.577000,210.78200 90.231000,209.27700 C 91.885000,207.77200 94.025000,205.63200 95.109000,205.20200 C 96.193000,204.77200 100.76300,203.73400 102.28600,203.38900 C 103.80900,203.04300 107.98600,201.20100 108.47200,200.56600 C 108.95800,199.93000 112.79800,195.56600 112.79800,195.56600"
   style="fill:none;stroke:#000000;stroke-width:0.50000000" />
			<path
   id="path113"
   d="M 109.41700,198.01500 C 109.41700,198.01500 109.89200,185.53900 110.37800,184.90400"
   style="fill:none;stroke:#000000;stroke-width:0.50000000" />
			<path
   id="path115"
   d="M 108.85500,189.53000 C 106.27600,191.58600 102.30500,192.83000 101.47300,191.94200"
   style="fill:none;stroke:#000000;stroke-width:0.50000000" />
			<path
   id="path117"
   d="M 100.70200,190.97500 C 99.258000,191.38200 94.872000,192.72800 94.452000,192.78400 C 94.032000,192.84000 92.222000,197.45700 91.713000,198.45200 C 91.204000,199.44700 90.699000,199.94300 90.699000,199.94300 C 90.699000,199.94300 93.442000,203.92800 93.293000,204.94700"
   style="fill:none;stroke:#000000;stroke-width:0.50000000" />
			<path
   id="path119"
   d="M 102.14600,194.13500 C 99.866000,195.58000 96.271000,197.86700 96.271000,197.86700 L 93.892000,201.41800"
   style="fill:none;stroke:#000000;stroke-width:0.50000000" />
			<line
   id="line121"
   y2="189.83000"
   x2="100.90500"
   y1="187.03200"
   x1="101.19800"
   style="fill:none;stroke:#000000;stroke-width:0.50000000" />
			<line
   id="line123"
   y2="190.84599"
   x2="92.575996"
   y1="191.57500"
   x1="93.528999"
   style="fill:none;stroke:#000000;stroke-width:0.50000000" />
			<line
   id="line125"
   y2="199.56799"
   x2="89.934998"
   y1="199.31900"
   x1="88.950996"
   style="fill:none;stroke:#000000;stroke-width:0.50000000" />
			<polyline
   id="polyline127"
   points="89.224,213.396 93.724,211.297 96.145,215.54 "
   style="fill:none;stroke:#000000;stroke-width:0.50000000" />
			<path
   id="path129"
   d="M 99.647000,209.80600 C 99.647000,209.80600 99.236000,211.00200 99.652000,211.44600"
   style="fill:none;stroke:#000000;stroke-width:0.50000000" />
			<polyline
   id="polyline131"
   points="96.595,194.59 94.906,195.481 94.228,196.808 "
   style="fill:none;stroke:#000000;stroke-width:0.50000000" />
		</g><g
   id="g133"
   transform="matrix(1.227493,0.000000,0.000000,1.227493,-0.149559,-0.563046)">
			<path
   id="path135"
   d="M 8.5750000,186.03600 C 19.704000,182.40900 29.798000,179.08300 32.373000,177.83100 C 34.948000,176.57900 38.660000,174.18300 40.064000,174.35400 C 41.468000,174.52500 46.035000,176.79300 47.212000,177.64900 C 48.390000,178.50500 57.400000,182.88300 58.332000,183.42400 C 59.263000,183.96600 62.967000,185.13100 64.891000,189.21200 C 66.815000,193.29300 67.964000,196.71100 68.039000,198.43000 C 68.114000,200.14900 66.688000,204.81900 66.359000,206.34600 C 66.030000,207.87300 65.968000,210.71500 65.269000,211.76900 C 64.570000,212.82300 63.132000,212.93300 63.132000,212.93300"
   style="fill:none;stroke:#000000;stroke-width:0.50000000" />
			<path
   id="path137"
   d="M 8.0220000,208.05100 C 12.568000,209.31900 16.417000,211.64100 19.258000,211.70400 C 22.100000,211.76600 27.256000,211.54100 29.276000,212.50000 C 31.296000,213.45900 39.246000,214.85800 41.547000,215.85200 C 43.847000,216.84600 47.744000,217.60600 49.059000,217.34000 C 50.373000,217.07300 52.093000,216.99800 53.462000,217.45000 C 54.832000,217.90300 58.851000,218.82100 59.762000,218.36300 C 60.673000,217.90500 63.001000,216.33700 63.104000,215.49400 C 63.207000,214.65100 62.920000,212.33700 61.250000,210.85100 C 59.580000,209.36500 57.416000,207.24800 56.327000,206.83000 C 55.239000,206.41200 50.658000,205.42500 49.131000,205.09600 C 47.604000,204.76700 43.407000,202.97100 42.914000,202.34200 C 42.421000,201.71200 38.533000,197.39000 38.533000,197.39000"
   style="fill:none;stroke:#000000;stroke-width:0.50000000" />
			<path
   id="path139"
   d="M 41.941000,199.80000 C 41.941000,199.80000 41.328000,187.33000 40.835000,186.70000"
   style="fill:none;stroke:#000000;stroke-width:0.50000000" />
			<path
   id="path141"
   d="M 42.409000,191.31000 C 45.011000,193.33700 48.995000,194.53700 49.818000,193.64000"
   style="fill:none;stroke:#000000;stroke-width:0.50000000" />
			<path
   id="path143"
   d="M 50.544000,192.93100 C 51.993000,193.32200 56.393000,194.61900 56.814000,194.67000 C 57.235000,194.72200 59.096000,199.31800 59.616000,200.30800 C 60.136000,201.29800 60.646000,201.78700 60.646000,201.78700 C 60.646000,201.78700 57.947000,205.80300 58.108000,206.81900"
   style="fill:none;stroke:#000000;stroke-width:0.50000000" />
			<line
   id="line145"
   y2="191.52100"
   x2="50.361000"
   y1="188.72800"
   x1="50.037998"
   style="fill:none;stroke:#000000;stroke-width:0.50000000" />
			<line
   id="line147"
   y2="192.75400"
   x2="59.362000"
   y1="193.49300"
   x1="58.417000"
   style="fill:none;stroke:#000000;stroke-width:0.50000000" />
			<line
   id="line149"
   y2="201.13800"
   x2="61.438000"
   y1="200.87801"
   x1="62.419998"
   style="fill:none;stroke:#000000;stroke-width:0.50000000" />
			<polyline
   id="polyline151"
   points="62.336,215.657 57.813,213.608 55.439,217.877 "
   style="fill:none;stroke:#000000;stroke-width:0.50000000" />
			<path
   id="path153"
   d="M 51.840000,211.48200 C 51.840000,211.48200 52.264000,212.67300 51.854000,213.12200"
   style="fill:none;stroke:#000000;stroke-width:0.50000000" />
			<polyline
   id="polyline155"
   points="54.724,196.233 56.422,197.106 57.116,198.425 "
   style="fill:none;stroke:#000000;stroke-width:0.50000000" />
			<line
   id="line157"
   y2="192.29300"
   x2="38.549999"
   y1="195.75999"
   x1="39.617001"
   style="fill:none;stroke:#000000;stroke-width:0.50000000" />
		</g><path
   id="path159"
   d="M 74.466058,260.96539 C 74.466058,260.96539 77.205822,281.83522 79.490187,288.02915 C 81.773324,294.22308 85.894018,304.65677 85.894018,304.65677 L 84.374381,304.76725 L 84.214807,306.76683 L 81.970950,305.33926 L 81.839608,307.73410 C 81.839608,307.73410 79.539287,305.51602 79.929629,306.68091 C 80.319972,307.84457 80.130938,309.44890 80.130938,309.44890 L 78.191499,307.99923 L 77.698047,309.62566 L 76.728328,308.90144 L 75.655499,310.96731 L 74.324896,309.47468 C 74.324896,309.47468 67.371148,287.64495 65.765588,267.94246"
   style="fill:none;stroke:#000000;stroke-width:0.61374652" /><path
   id="path161"
   d="M 113.77652,266.92732 C 113.44878,274.45553 110.83054,288.53120 108.53881,293.11343 C 106.24708,297.69566 100.02860,305.22510 100.02860,305.22510 L 96.754876,307.84334 L 96.427135,305.87935 L 94.135406,306.86135 L 94.790887,304.56962 L 93.154639,304.56962 L 91.190650,303.91414 L 90.862909,302.27789 L 89.553174,302.27789 L 91.189423,300.31390 C 91.189423,300.31390 97.409130,293.76768 99.373118,289.18422 C 101.33711,284.60199 106.90256,259.72439 106.90256,259.72439"
   style="fill:none;stroke:#000000;stroke-width:0.61374652" /><g
   id="g163"
   transform="matrix(1.227493,0.000000,0.000000,1.227493,-0.149559,-0.563046)">
			<line
   id="line165"
   y2="247.38300"
   x2="90.569000"
   y1="247.38300"
   x1="107.36900"
   style="fill:none;stroke:#000000" />
			<path
   id="path167"
   d="M 88.155000,247.38300 C 89.291000,246.96200 90.700000,246.24200 91.573000,245.48100 L 90.885000,247.38300 L 91.573000,249.28500 C 90.700000,248.52300 89.291000,247.80400 88.155000,247.38300 z " />
		</g><g
   id="g169"
   transform="matrix(1.227493,0.000000,0.000000,1.227493,-0.149559,-0.563046)">
			<line
   id="line171"
   y2="247.38300"
   x2="49.669998"
   y1="247.38300"
   x1="32.869999"
   style="fill:none;stroke:#000000" />
			<path
   id="path173"
   d="M 52.084000,247.38300 C 50.948000,247.80400 49.539000,248.52400 48.665000,249.28500 L 49.353000,247.38300 L 48.665000,245.48100 C 49.539000,246.24200 50.948000,246.96100 52.084000,247.38300 z " />
		</g><g
   id="g175"
   transform="matrix(1.227493,0.000000,0.000000,1.227493,3.850441,1.436954)">
			<text
   id="text177"
   transform="translate(0.000000,9.000000)"><tspan
     id="tspan179"
     style="font-size:7.6500001px;font-family:Bitstream Vera Sans"
     y="0"
     x="0">1</tspan></text>

		</g><g
   id="g181"
   transform="matrix(1.227493,0.000000,0.000000,1.227493,3.850441,1.436954)">
			<text
   id="text183"
   transform="translate(0.000000,73.00000)"><tspan
     id="tspan185"
     style="font-size:7.6500001px;font-family:Bitstream Vera Sans"
     y="0"
     x="0">2</tspan></text>

		</g><g
   id="g187"
   transform="matrix(1.227493,0.000000,0.000000,1.227493,3.850441,1.436954)">
			<text
   id="text189"
   transform="translate(0.251500,174.0000)"><tspan
     id="tspan191"
     style="font-size:7.6500001px;font-family:Bitstream Vera Sans"
     y="0"
     x="0">3</tspan></text>

		</g>
</svg>